<?xml version="1.0" encoding="UTF-8"?>
<svg width="128" height="128" viewBox="0 0 128 128" fill="none" xmlns="http://www.w3.org/2000/svg">
  <rect width="128" height="128" rx="24" fill="#FF2442"/>
  <path d="M64 32C46.3269 32 32 46.3269 32 64C32 81.6731 46.3269 96 64 96C81.6731 96 96 81.6731 96 64C96 46.3269 81.6731 32 64 32ZM76 68H68V76C68 78.2091 66.2091 80 64 80C61.7909 80 60 78.2091 60 76V68H52C49.7909 68 48 66.2091 48 64C48 61.7909 49.7909 60 52 60H60V52C60 49.7909 61.7909 48 64 48C66.2091 48 68 49.7909 68 52V60H76C78.2091 60 80 61.7909 80 64C80 66.2091 78.2091 68 76 68Z" fill="white"/>
</svg> 